<?xml version="1.0"?>
<svg xmlns="http://www.w3.org/2000/svg" height="512px" viewBox="0 0 64 64" width="512px"><g><path d="m53 2h-26a3 3 0 0 0 -3 3v8.01h-1.19a5 5 0 0 0 -4.327 2.5l-5.008 8.67a10.992 10.992 0 0 0 -1.475 5.5v22.32a1 1 0 0 0 -1 1v8a1 1 0 0 0 1 1h14a1 1 0 0 0 1-1v-8a1 1 0 0 0 -1-1v-.724l.857-1.431a15 15 0 0 0 2.02-5.845h24.123a3 3 0 0 0 3-3v-36a3 3 0 0 0 -3-3zm-28 58h-12v-6h12zm2-17.88a13.013 13.013 0 0 1 -1.858 6.7l-1 1.67a1 1 0 0 0 -.142.51v1h-10v-22.32a8.986 8.986 0 0 1 1.206-4.5l5.012-8.674a2.988 2.988 0 0 1 2.592-1.5h1.19v10.451l-4.066 7.043 1.732 1 7.5-12.991a2 2 0 0 1 3.468 2l-6.87 11.891a1.043 1.043 0 0 0 -.132.454v.045.012a.986.986 0 0 0 .08.393l.622 1.855a12.91 12.91 0 0 1 .666 4.111zm7.8-21.5a3.95 3.95 0 0 1 3.2-1.62 4 4 0 1 1 -3.868 4.914l.235-.407a4.013 4.013 0 0 0 .533-2 4.064 4.064 0 0 0 -.1-.891zm-5.8 21.38v-.73a14.931 14.931 0 0 0 -.771-4.748l-.507-1.512 5.156-8.925a5.986 5.986 0 1 0 .906-7.349 4.03 4.03 0 0 0 -.882-.691 4 4 0 0 0 -5.468 1.465l-1.434 2.483v-16.993a1 1 0 0 1 1-1h22a1 1 0 0 1 1 1v36a1 1 0 0 1 -1 1zm25-1a1 1 0 0 1 -1 1h-1.184a2.966 2.966 0 0 0 .184-1v-36a2.966 2.966 0 0 0 -.184-1h1.184a1 1 0 0 1 1 1z" data-original="#000000" class="active-path" data-old_color="#000000" fill="#FFFFFF"/><path d="m46 7h-4v2h3v3h2v-4a1 1 0 0 0 -1-1z" data-original="#000000" class="active-path" data-old_color="#000000" fill="#FFFFFF"/><path d="m45 37h-3v2h4a1 1 0 0 0 1-1v-4h-2z" data-original="#000000" class="active-path" data-old_color="#000000" fill="#FFFFFF"/><path d="m29 8v4h2v-3h3v-2h-4a1 1 0 0 0 -1 1z" data-original="#000000" class="active-path" data-old_color="#000000" fill="#FFFFFF"/><path d="m31 34h-2v4a1 1 0 0 0 1 1h4v-2h-3z" data-original="#000000" class="active-path" data-old_color="#000000" fill="#FFFFFF"/><path d="m37 33h2v2h-2z" data-original="#000000" class="active-path" data-old_color="#000000" fill="#FFFFFF"/><path d="m37 11h2v2h-2z" data-original="#000000" class="active-path" data-old_color="#000000" fill="#FFFFFF"/></g> </svg>
